<svg width="14" height="18" viewBox="0 0 14 18" fill="none" xmlns="http://www.w3.org/2000/svg">
<path d="M6.72826 11.1111H4.50476V13.3346H6.72826V11.1111Z" fill="#FF9B25"/>
<path d="M6.72826 4.44699H4.50476V6.67048H6.72826V4.44699Z" fill="#FF9B25"/>
<path d="M8.95173 6.66412H4.50476V11.1111H8.95173V6.66412Z" fill="#FFBC27"/>
<path d="M11.1689 11.1111H8.9454V13.3346H11.1689V11.1111Z" fill="#FF9B25"/>
<path d="M11.1689 4.44699H8.9454V6.67048H11.1689V4.44699Z" fill="#FF9B25"/>
<path d="M13.3924 13.3346V4.44699H11.1689V13.3346H13.3924Z" fill="#FF9B25"/>
<path d="M6.7219 17.7752H8.94537V15.5517H6.7219V17.7752Z" fill="#FF9B25"/>
<path d="M6.7219 2.22348L8.94537 2.22348V-8.82149e-06L6.7219 -8.82149e-06V2.22348Z" fill="#FF9B25"/>
<path d="M4.50476 15.5581H11.1689V13.3346H4.50476V15.5581Z" fill="#FF9B25"/>
<path d="M4.50476 4.44699L11.1689 4.44699V2.2235L4.50476 2.2235V4.44699Z" fill="#FF9B25"/>
<path d="M4.50474 11.1111H2.28125V13.3346H4.50474V11.1111Z" fill="#FFD112"/>
<path d="M4.50474 4.44699H2.28125V6.67048H4.50474V4.44699Z" fill="#FFD112"/>
<path d="M8.95172 11.1111H6.72824V13.3346H8.95172V11.1111Z" fill="#FFD112"/>
<path d="M8.95172 4.44699H6.72824V6.67048H8.95172V4.44699Z" fill="#FFD112"/>
<path d="M2.28125 13.3346L2.28125 4.44699H0.0577607L0.0577607 13.3346H2.28125Z" fill="#FFD112"/>
<path d="M11.1689 13.3346V4.44699H8.94539V13.3346H11.1689Z" fill="#FFD112"/>
<path d="M4.4984 17.7752H6.72189V15.5517H4.4984V17.7752Z" fill="#FFD112"/>
<path d="M4.4984 2.22348L6.72189 2.22348V-8.82149e-06L4.4984 -8.82149e-06V2.22348Z" fill="#FFD112"/>
<path d="M2.28127 15.5581H8.9454V13.3346H2.28127V15.5581Z" fill="#FFD112"/>
<path d="M2.28127 4.44699L8.9454 4.44699V2.2235L2.28127 2.2235V4.44699Z" fill="#FFD112"/>
<path d="M8.95172 8.88763H6.72824V11.1111H8.95172V8.88763Z" fill="#FF9B25"/>
<path d="M8.95172 6.66412H6.72824V8.88761H8.95172V6.66412Z" fill="#FF9B25"/>
<path d="M4.49841 11.1238V6.67047H2.27492L2.27492 11.1238H4.49841Z" fill="#FF9B25"/>
</svg>
