<svg width="66" height="18" viewBox="0 0 66 18" fill="none" xmlns="http://www.w3.org/2000/svg">
<path d="M3.13412 4.44699H0.910645V8.89397H3.13412V4.44699Z" fill="#FF2424"/>
<path d="M20.9157 4.44699H18.6922V8.89397H20.9157V4.44699Z" fill="#FF2424"/>
<path d="M12.0281 15.5581H9.80457V17.7816H12.0281V15.5581Z" fill="#FF2424"/>
<path d="M9.7983 2.22348H3.13416V4.44697H9.7983V2.22348Z" fill="#FF2424"/>
<path d="M18.6922 2.22348H12.0281V4.44697H18.6922V2.22348Z" fill="#FF2424"/>
<path d="M16.4687 0H14.2452V2.22349H16.4687V0Z" fill="#FF2424"/>
<path d="M14.2452 13.3346H7.58112V15.5581H14.2452V13.3346Z" fill="#FF2424"/>
<path d="M7.5811 0H5.3576V2.22349H7.5811V0Z" fill="#FF2424"/>
<path d="M18.6922 8.88763H9.80457V11.1111H18.6922V8.88763Z" fill="#FF2424"/>
<path d="M18.6922 6.66412H3.13416V8.88761H18.6922V6.66412Z" fill="#FF2424"/>
<path d="M12.0218 8.88763H3.13416V11.1111H12.0218V8.88763Z" fill="#FF2424"/>
<path d="M18.6922 4.44699H3.13416V6.67048H18.6922V4.44699Z" fill="#FF2424"/>
<path d="M16.4687 11.1111H5.3576V13.3346H16.4687V11.1111Z" fill="#FF2424"/>
<path d="M48.2247 4.44699H46.0012V8.89397H48.2247V4.44699Z" fill="#FF2424"/>
<path d="M66 4.44699H63.7765V8.89397H66V4.44699Z" fill="#FF2424"/>
<path d="M57.1123 15.5581H54.8888V17.7816H57.1123V15.5581Z" fill="#FF2424"/>
<path d="M54.8888 2.22348H48.2247V4.44697H54.8888V2.22348Z" fill="#FF2424"/>
<path d="M63.7764 2.22348H57.1123V4.44697H63.7764V2.22348Z" fill="#FF2424"/>
<path d="M61.5593 0H59.3358V2.22349H61.5593V0Z" fill="#FF2424"/>
<path d="M59.3295 13.3346H52.6653V15.5581H59.3295V13.3346Z" fill="#FF2424"/>
<path d="M52.6716 0H50.4482V2.22349H52.6716V0Z" fill="#FF2424"/>
<path d="M63.7764 8.88763H54.8888V11.1111H63.7764V8.88763Z" fill="#FF2424"/>
<path d="M63.7828 6.66412H48.2247V8.88761H63.7828V6.66412Z" fill="#1E1E1E"/>
<path d="M57.1123 8.88763H48.2247V11.1111H57.1123V8.88763Z" fill="#FF2424"/>
<path d="M63.7828 4.44699H48.2247V6.67048H63.7828V4.44699Z" fill="#1E1E1E"/>
<path d="M61.5593 11.1111H50.4482V13.3346H61.5593V11.1111Z" fill="#FF2424"/>
<path d="M57.1123 11.1111H54.8888V15.5581H57.1123V11.1111Z" fill="#19021E"/>
<path d="M61.5593 8.88763H50.4482V11.1111H61.5593V8.88763Z" fill="#19021E"/>
<path d="M63.7828 6.66412H48.2247V8.88761H63.7828V6.66412Z" fill="#19021E"/>
<path d="M59.3295 6.66412H52.6653V13.3283H59.3295V6.66412Z" fill="#19021E"/>
<path d="M63.7828 4.44699H48.2247V6.67048H63.7828V4.44699Z" fill="#19021E"/>
<path d="M52.6716 2.22348H50.4482V4.44697H52.6716V2.22348Z" fill="#19021E"/>
<path d="M61.5593 2.22348H59.3358V4.44697H61.5593V2.22348Z" fill="#19021E"/>
<path d="M57.1123 4.44699H54.8888V6.67048H57.1123V4.44699Z" fill="#FF2424"/>
<path d="M25.6921 4.44699H23.4686V8.89397H25.6921V4.44699Z" fill="#FF2424"/>
<path d="M43.4674 4.44699H41.2439V8.89397H43.4674V4.44699Z" fill="#FF2424"/>
<path d="M34.5798 15.5581H32.3563V17.7816H34.5798V15.5581Z" fill="#FF2424"/>
<path d="M32.3563 2.22348H25.6921V4.44697H32.3563V2.22348Z" fill="#FF2424"/>
<path d="M41.2439 2.22348H34.5798V4.44697H41.2439V2.22348Z" fill="#FF2424"/>
<path d="M39.0267 0H36.8032V2.22349H39.0267V0Z" fill="#FF2424"/>
<path d="M36.7969 13.3346H30.1328V15.5581H36.7969V13.3346Z" fill="#FF2424"/>
<path d="M30.1328 0H27.9093V2.22349H30.1328V0Z" fill="#FF2424"/>
<path d="M41.2439 8.88763H32.3563V11.1111H41.2439V8.88763Z" fill="#FF2424"/>
<path d="M41.2502 6.66412H25.6921V8.88761H41.2502V6.66412Z" fill="#1E1E1E"/>
<path d="M34.5798 8.88763H25.6921V11.1111H34.5798V8.88763Z" fill="#FF2424"/>
<path d="M41.2502 4.44699H25.6921V6.67048H41.2502V4.44699Z" fill="#1E1E1E"/>
<path d="M39.0204 11.1111H27.9093V13.3346H39.0204V11.1111Z" fill="#FF2424"/>
<path d="M41.2502 6.66412H25.6921V8.88761H41.2502V6.66412Z" fill="#19021E"/>
<path d="M41.2502 4.44699H25.6921V6.67048H41.2502V4.44699Z" fill="#19021E"/>
<path d="M30.1328 2.22348H27.9093V4.44697H30.1328V2.22348Z" fill="#19021E"/>
<path d="M39.0267 2.22348H36.8032V4.44697H39.0267V2.22348Z" fill="#19021E"/>
<path d="M34.5798 4.44699H32.3563V6.67048H34.5798V4.44699Z" fill="#FF2424"/>
</svg>
